<svg viewBox="0 0 100 100" xmlns="http://www.w3.org/2000/svg">
  <!-- Generator: Adobe Illustrator 29.8.1, SVG Export Plug-In . SVG Version: 2.1.1 Build 2)  -->
  <path fill="#32CD32" d="M46.7,45.36l-21.86,38.41-4.88-4.13,14.14-25.2c.57-3.93-3.59-2.48-5.76-2.45-6.34.11-12.71-.11-19.05-.01v-6.62h37.41Z"/>
  <path fill="#32CD32" d="M90.73,45.36v6.13c-.29.47-.66.46-1.14.51-6.75.79-14.75-1.14-21.54-.36-3.25.38-2.35,2.65-1.32,4.65,4,7.77,9.34,15.26,13.36,23.07l-.25.61-4.66,3.79-21.52-38.41h37.08Z"/>
  <path fill="#32CD32" d="M50.34,52.32l20.19,34.75-5.61,2.66-13.23-22.94c-.67-.7-2.07-.83-2.85-.26l-13.88,23.2c-1.02-.96-3.99-1.65-4.81-2.48-.29-.29-.42-.42-.19-.83l20.39-34.1Z"/>
  <path fill="#32CD32" d="M48.27,10.34c14.4-2.29,14.05,19.44,0,17.06-8.83-1.5-8.91-15.64,0-17.06Z"/>
  <path fill="#32CD32" d="M61.6,38.08v-7.28h4.97v11.26h-6.79c-2.05-2.15-3.85-4.53-5.85-6.73-.3-.32-.29-.71-.93-.56v7.28h-4.63v-11.26h6.46l6.79,7.28Z"/>
  <path fill="#32CD32" d="M28.82,33.77h-4.97s0-.61-.32-.82c-.84-.55-4.94-.65-4.64.65.35,1.52,11.26.63,10.53,5.23-.61,3.87-10.52,3.63-13.25,2.79-1.75-.54-2.91-1.62-2.91-3.55h4.97c.12,0,.14,1.39,1.5,1.65.73.14,4.44.11,4.45-.82-2.24-2.44-11.73-.69-10.5-5.88.73-3.09,8.8-2.83,11.25-2.48,1.74.25,4,1.15,3.89,3.23Z"/>
  <path fill="#32CD32" d="M88.41,42.05h-5.46l-1.38-2h-7.57c-.67-.13-1.24,2-1.64,2h-4.8l7.84-11.2,5.74.1,7.28,11.1ZM78.14,33.78c-.62-.43-2.95,3.67-2.64,3.97l4.63-.33-1.99-3.64Z"/>
  <polygon fill="#32CD32" points="45.38 30.79 45.38 33.11 36.77 33.11 37.27 35.1 44.71 35.1 44.71 37.42 36.77 37.42 36.77 39.74 45.71 39.74 45.71 42.05 31.8 42.05 31.8 30.79 45.38 30.79"/>
</svg>